:FULLY-SPECIFIED
:FORCE-ALL-JOINTS-BE-3DOF
:DEGREES
985
root 1.11119 15.1491 32.4953 5.36824 -4.6568 4.14069
lfemur 8.71126 1.74748 5.17377
ltibia -1.11319e-014 0 0
lfoot -30.1275 -11.698 -6.94904e-006
ltoes -33.8456 0 0
rfemur -32.9803 -15.5405 -6.27226
rtibia 50.9156 -0 0
rfoot -22.6967 4.92362 0.000109112
rtoes -42.0356 0 0
lowerback -1.49811 -0.438423 0.65014
upperback -0.735439 -0.589964 -5.92221
thorax 0.0135098 -0.312334 -6.52045
lowerneck -6.60678 1.15079 5.87239
upperneck 1.00172 0.960479 3.36306
head 1.4374 0.580351 0.0932653
lclavicle 2.33572e-015 3.97569e-014 0
lhumerus -58.6212 -45.4357 115.004
lradius 55.1122 -0 0
lwrist 25.4016 0 0
lhand 37.2662 24.4462 2.28737e-005
lfingers 7.12502 -0 0
lthumb 60.093 38.1284 8.20644e-006
rclavicle 2.33572e-015 3.97569e-014 0
rhumerus 3.76163 -24.907 -0.134597
rradius 28.0851 -0 0
rwrist -11.389 0 0
rhand -31.3097 -44.4244 -6.80344e-005
rfingers 7.12502 -0 0
rthumb -4.58218 -74.3546 -6.59593e-005
986
root 1.11422 15.1508 32.4897 5.33547 -4.63887 4.1266
lfemur 8.7129 1.7194 5.17801
ltibia -1.11319e-014 0 0
lfoot -30.1288 -11.6779 -6.94904e-006
ltoes -33.865 0 0
rfemur -32.9171 -15.5602 -6.26639
rtibia 50.8408 -0 0
rfoot -22.7135 4.89894 0.000109112
rtoes -42.1373 0 0
lowerback -1.48443 -0.420018 0.643711
upperback -0.730768 -0.565264 -5.9059
thorax 0.0138185 -0.299701 -6.4989
lowerneck -6.6442 1.15594 5.86421
upperneck 1.04871 0.962612 3.37228
head 1.45914 0.583527 0.0978889
lclavicle 2.33572e-015 3.97569e-014 0
lhumerus -58.5811 -45.436 115.022
lradius 55.1048 -0 0
lwrist 25.3526 0 0
lhand 37.2588 24.4345 2.28737e-005
lfingers 7.12502 -0 0
lthumb 60.0865 38.1236 8.20644e-006
rclavicle 2.33572e-015 3.97569e-014 0
rhumerus 3.75959 -24.8446 -0.151
rradius 28.0608 -0 0
rwrist -11.3329 0 0
rhand -31.3158 -44.3823 -6.80344e-005
rfingers 7.12502 -0 0
rthumb -4.58814 -74.3124 -6.59593e-005
987
root 1.11726 15.1525 32.4842 5.3027 -4.62095 4.1125
lfemur 8.71454 1.69132 5.18225
ltibia -1.11319e-014 0 0
lfoot -30.1301 -11.6577 -6.48578e-006
ltoes -33.8843 0 0
rfemur -32.8539 -15.5799 -6.26054
rtibia 50.766 -0 0
rfoot -22.7304 4.87427 0.000101838
rtoes -42.2389 0 0
lowerback -1.47074 -0.401613 0.637286
upperback -0.72609 -0.540565 -5.88959
thorax 0.0141321 -0.287068 -6.47735
lowerneck -6.68163 1.16109 5.85604
upperneck 1.0957 0.964738 3.38151
head 1.48088 0.586701 0.102514
lclavicle 2.33572e-015 3.97569e-014 0
lhumerus -58.5411 -45.4362 115.04
lradius 55.0973 -0 0
lwrist 25.3035 0 0
lhand 37.2513 24.4229 2.13488e-005
lfingers 7.12502 -0 0
lthumb 60.0801 38.1187 7.65934e-006
rclavicle 2.33572e-015 3.97569e-014 0
rhumerus 3.75753 -24.7822 -0.167398
rradius 28.0365 -0 0
rwrist -11.2769 0 0
rhand -31.322 -44.3402 -6.34987e-005
rfingers 7.12502 -0 0
rthumb -4.5941 -74.2701 -6.1562e-005
988
root 1.12029 15.1542 32.4787 5.26993 -4.60304 4.09839
lfemur 8.71618 1.66324 5.18648
ltibia -1.11319e-014 0 0
lfoot -30.1314 -11.6376 -5.55924e-006
ltoes -33.9037 0 0
rfemur -32.7906 -15.5995 -6.25471
rtibia 50.6912 -0 0
rfoot -22.7473 4.84959 8.72893e-005
rtoes -42.3406 0 0
lowerback -1.45706 -0.383206 0.630866
upperback -0.721405 -0.515868 -5.87327
thorax 0.0144503 -0.274435 -6.45579
lowerneck -6.71905 1.16624 5.84786
upperneck 1.1427 0.966856 3.39073
head 1.50262 0.589874 0.10714
lclavicle 2.33572e-015 3.97569e-014 0
lhumerus -58.501 -45.4365 115.058
lradius 55.0898 -0 0
lwrist 25.2544 0 0
lhand 37.2438 24.4112 1.8299e-005
lfingers 7.12502 -0 0
lthumb 60.0737 38.1138 6.56515e-006
rclavicle 2.33572e-015 3.97569e-014 0
rhumerus 3.75546 -24.7198 -0.18379
rradius 28.0122 -0 0
rwrist -11.2209 0 0
rhand -31.3282 -44.2981 -5.44275e-005
rfingers 7.12502 -0 0
rthumb -4.60006 -74.2278 -5.27674e-005
989
root 1.12332 15.1558 32.4732 5.23715 -4.58513 4.08427
lfemur 8.71781 1.63516 5.19072
ltibia -1.11319e-014 0 0
lfoot -30.1328 -11.6175 -4.16943e-006
ltoes -33.9231 0 0
rfemur -32.7274 -15.6192 -6.2489
rtibia 50.6165 -0 0
rfoot -22.7642 4.82492 6.5467e-005
rtoes -42.4422 0 0
lowerback -1.44338 -0.364797 0.62445
upperback -0.716714 -0.491172 -5.85696
thorax 0.0147733 -0.261802 -6.43424
lowerneck -6.75648 1.17138 5.83968
upperneck 1.18969 0.968967 3.39995
head 1.52437 0.593045 0.111767
lclavicle 2.33572e-015 3.97569e-014 0
lhumerus -58.461 -45.4369 115.076
lradius 55.0823 -0 0
lwrist 25.2053 0 0
lhand 37.2363 24.3995 1.37242e-005
lfingers 7.12502 -0 0
lthumb 60.0673 38.1089 4.92386e-006
rclavicle 2.33572e-015 3.97569e-014 0
rhumerus 3.75336 -24.6574 -0.200176
rradius 27.9878 -0 0
rwrist -11.1649 0 0
rhand -31.3344 -44.256 -4.08206e-005
rfingers 7.12502 -0 0
rthumb -4.60602 -74.1855 -3.95755e-005
990
root 1.12636 15.1575 32.4676 5.20437 -4.56724 4.07014
lfemur 8.71944 1.60708 5.19495
ltibia -1.11319e-014 0 0
lfoot -30.1341 -11.5973 -2.31635e-006
ltoes -33.9424 0 0
rfemur -32.6641 -15.6389 -6.24311
rtibia 50.5417 -0 0
rfoot -22.7811 4.80024 3.63705e-005
rtoes -42.5439 0 0
lowerback -1.4297 -0.346387 0.618039
upperback -0.712015 -0.466477 -5.84064
thorax 0.0151011 -0.24917 -6.41268
lowerneck -6.7939 1.17651 5.83149
upperneck 1.23669 0.97107 3.40918
head 1.54611 0.596214 0.116395
lclavicle 2.33572e-015 3.97569e-014 0
lhumerus -58.4209 -45.4372 115.094
lradius 55.0749 -0 0
lwrist 25.1562 0 0
lhand 37.2288 24.3879 7.62458e-006
lfingers 7.12502 -0 0
lthumb 60.0609 38.104 2.73548e-006
rclavicle 2.33572e-015 3.97569e-014 0
rhumerus 3.75125 -24.595 -0.216557
rradius 27.9635 -0 0
rwrist -11.1088 0 0
rhand -31.3405 -44.2139 -2.26781e-005
rfingers 7.12502 -0 0
rthumb -4.61198 -74.1433 -2.19864e-005
991
root 1.12939 15.1592 32.4621 5.17158 -4.54935 364.056
lfemur 8.72107 1.579 5.19918
ltibia -1.11319e-014 0 0
lfoot -30.1354 -11.5772 0
ltoes -33.9618 0 0
rfemur -32.6009 -15.6586 -6.23735
rtibia 50.4669 0 0
rfoot -22.798 4.77557 0
rtoes -42.6455 0 0
lowerback -1.41603 -0.327975 0.611632
upperback -0.707309 -0.441784 -5.82432
thorax 0.0154336 -0.236537 -6.39113
lowerneck -6.83133 1.18164 5.8233
upperneck 1.28368 0.973166 3.41841
head 1.56785 0.599381 0.121025
lclavicle 2.33572e-015 3.97569e-014 0
lhumerus -58.3809 -45.4375 115.112
lradius 55.0674 0 0
lwrist 25.1071 0 0
lhand 37.2213 24.3762 0
lfingers 7.12502 0 0
lthumb 60.0545 38.0991 0
rclavicle 2.33572e-015 3.97569e-014 0
rhumerus 3.74912 -24.5326 -0.232932
rradius 27.9392 0 0
rwrist -11.0528 0 0
rhand -31.3467 -44.1718 0
rfingers 7.12502 0 0
rthumb -4.61794 -794.101 0
992
root 1.13042 15.1598 32.4587 5.15755 -4.48895 4.03006
lfemur 8.69544 1.5205 5.22449
ltibia 1.90833e-014 -0 0
lfoot -30.1379 -11.5193 -1.245e-005
ltoes -33.9957 0 0
rfemur -32.5469 -15.6719 -6.22024
rtibia 50.4357 -0 0
rfoot -22.7922 4.73196 -2.19328e-005
rtoes -42.6926 0 0
lowerback -1.41477 -0.32724 0.605301
upperback -0.698458 -0.440247 -5.81916
thorax 0.0241215 -0.235402 -6.38199
lowerneck -6.84378 1.17426 5.83966
upperneck 1.29105 0.960543 3.42192
head 1.57241 0.593664 0.119023
lclavicle -1.49089e-015 4.29375e-014 0
lhumerus -58.394 -45.4853 115.137
lradius 55.0812 -0 0
lwrist 25.1348 0 0
lhand 37.2135 24.3879 -7.97936e-006
lfingers 7.12502 -0 0
lthumb 60.0478 38.1178 -1.09294e-005
rclavicle -1.49089e-015 4.29375e-014 0
rhumerus 3.71886 -24.4759 -0.23279
rradius 27.9387 -0 0
rwrist -11.0493 0 0
rhand -31.3251 -44.1166 0.000104103
rfingers 7.12502 -0 0
rthumb -4.59706 -74.0463 9.97156e-005
